Coordinates
version=1
nRows=13
nColumns=40
inDegrees=yes

Units are S.I. units (second, meters, Newtons, ...)
If the header above contains a line with 'inDegrees', this indicates whether rotational values are in degrees (yes) or radians (no).

endheader
time	pelvis_tilt	pelvis_list	pelvis_rotation	pelvis_tx	pelvis_ty	pelvis_tz	hip_flexion_r	hip_adduction_r	hip_rotation_r	knee_angle_r	knee_angle_r_beta	ankle_angle_r	subtalar_angle_r	mtp_angle_r	hip_flexion_l	hip_adduction_l	hip_rotation_l	knee_angle_l	knee_angle_l_beta	ankle_angle_l	subtalar_angle_l	mtp_angle_l	lumbar_extension	lumbar_bending	lumbar_rotation	arm_flex_r	arm_add_r	arm_rot_r	elbow_flex_r	pro_sup_r	wrist_flex_r	wrist_dev_r	arm_flex_l	arm_add_l	arm_rot_l	elbow_flex_l	pro_sup_l	wrist_flex_l	wrist_dev_l
      7.32500000	     88.29675770	     55.51054600	     88.46163001	      0.39304163	      0.59658669	      0.80792785	     65.25872430	    -10.41205384	     -7.02594953	     24.54767459	      0.42843775	     -6.18795216	      0.00000000	      0.00000000	     63.26373577	    -15.59546095	    -14.69817703	     24.48293166	      0.42730777	     -4.05622169	      0.00000000	      0.00000000	    -52.72861159	     -7.85272864	     -0.56868304	     67.59537030	     -1.87332545	     10.35875692	     10.73316597	     36.34212223	      0.00000000	      0.00000000	     65.32322481	     -1.55999934	    -14.57092658	     22.31483225	     38.22245306	      0.00000000	      0.00000000
      7.33000000	     88.28233029	     55.56589742	     88.46876373	      0.39292291	      0.59690851	      0.80853370	     65.08321354	    -10.37481236	     -7.00739259	     24.35216788	      0.42502551	     -6.29486057	      0.00000000	      0.00000000	     63.04233439	    -15.56417475	    -14.73177893	     24.19612651	      0.42230207	     -4.26630013	      0.00000000	      0.00000000	    -52.58918772	     -7.89998649	     -0.54373691	     67.27807646	     -1.93043387	     10.34338691	     10.92060696	     36.44117336	      0.00000000	      0.00000000	     65.09196108	     -1.62000419	    -14.40014784	     22.37740909	     38.27805917	      0.00000000	      0.00000000
      7.33500000	     88.34139425	     55.73722087	     88.47044366	      0.39259653	      0.59716536	      0.80933396	     64.79337604	    -10.41221752	     -7.21920046	     24.24157088	      0.42309523	     -6.40142801	      0.00000000	      0.00000000	     62.72091251	    -15.52987961	    -14.77544697	     23.95832602	      0.41815167	     -4.39766070	      0.00000000	      0.00000000	    -52.59015940	     -7.89283298	     -0.54592837	     66.96480050	     -1.93105534	     10.32345900	     11.17365750	     36.65861455	      0.00000000	      0.00000000	     64.83468288	     -1.75723784	    -13.88978599	     22.47538417	     38.42380488	      0.00000000	      0.00000000
      7.34000000	     88.30530136	     55.68613791	     88.42030160	      0.39256256	      0.59753054	      0.80970669	     64.75447351	    -10.30482029	     -7.11025438	     24.05296421	      0.41980342	     -6.54306262	      0.00000000	      0.00000000	     62.64390704	    -15.56859173	    -14.80690603	     23.74930601	      0.41450358	     -4.57255638	      0.00000000	      0.00000000	    -52.31118210	     -7.99116915	     -0.46151362	     66.76977634	     -1.92883539	     10.38726817	     11.10446591	     36.76440514	      0.00000000	      0.00000000	     64.67071958	     -1.80675826	    -13.61107799	     22.37076373	     38.49144383	      0.00000000	      0.00000000
      7.34500000	     88.36576125	     55.89883806	     88.50074253	      0.39209815	      0.59763144	      0.81051813	     64.43066053	    -10.43661863	     -7.44290838	     24.00700023	      0.41900120	     -6.50320265	      0.00000000	      0.00000000	     62.29736628	    -15.44480316	    -14.74850734	     23.50850496	      0.41030081	     -4.69391129	      0.00000000	      0.00000000	    -52.35526713	     -7.88230149	     -0.53733550	     66.24650061	     -2.02241207	     10.35953666	     11.77645510	     37.06648596	      0.00000000	      0.00000000	     64.22461824	     -2.01331426	    -13.05971297	     22.79299116	     38.71337012	      0.00000000	      0.00000000
      7.35000000	     88.11546441	     55.20329712	     88.29771916	      0.39278807	      0.59860716	      0.80926172	     65.18697639	     -9.95785783	     -6.52745522	     23.74262012	      0.41438689	     -6.88229265	      0.00000000	      0.00000000	     63.17983704	    -15.86077591	    -15.09461052	     23.97025701	      0.41835991	     -4.75610581	      0.00000000	      0.00000000	    -51.22208459	     -8.39989451	     -0.25739580	     63.59548276	     -3.01334997	      9.99717413	     15.89270444	     37.94487986	      0.00000000	      0.00000000	     61.80685885	     -2.06761492	    -12.27287981	     26.18270646	     39.43472910	      0.00000000	      0.00000000
      7.35500000	     88.25432789	     55.97612611	     88.36714595	      0.39179490	      0.59855763	      0.81133790	     64.24026261	    -10.19220404	     -7.23383813	     23.75811427	      0.41465732	     -6.73853744	      0.00000000	      0.00000000	     61.97868436	    -15.59665894	    -14.89542488	     23.20416587	      0.40498909	     -4.89177023	      0.00000000	      0.00000000	    -51.91827209	     -8.17416631	     -0.38024824	     66.17120918	     -1.79735200	     10.52199928	     10.83326696	     37.14487181	      0.00000000	      0.00000000	     63.86694958	     -2.06014950	    -12.97246430	     22.54480251	     38.81229263	      0.00000000	      0.00000000
      7.36000000	     88.28421258	     56.10362311	     88.35870664	      0.39137759	      0.59878525	      0.81186826	     64.03572088	    -10.19628209	     -7.35072822	     23.70232501	      0.41368361	     -6.75380753	      0.00000000	      0.00000000	     61.75697446	    -15.58372517	    -14.87706513	     23.08400448	      0.40289188	     -4.95411849	      0.00000000	      0.00000000	    -51.82513623	     -8.11201274	     -0.42570921	     66.21699183	     -1.29621873	      8.09606454	     10.69186291	     34.58579286	      0.00000000	      0.00000000	     65.06866393	     -0.80767595	    -19.66363649	     21.30898206	     36.74514198	      0.00000000	      0.00000000
      7.36500000	     88.27434190	     56.33487970	     88.35207013	      0.39100071	      0.59903657	      0.81252989	     63.73595501	    -10.18342057	     -7.41296995	     23.64564638	      0.41269438	     -6.78042216	      0.00000000	      0.00000000	     61.41888802	    -15.59059674	    -14.92786929	     22.95817556	      0.40069575	     -5.00688887	      0.00000000	      0.00000000	    -51.81392811	     -8.18863862	     -0.31040964	     65.80820689	     -1.45942106	      8.11353654	     10.96844014	     35.01313815	      0.00000000	      0.00000000	     64.57733588	     -0.95426003	    -18.05217874	     21.66998180	     37.07246926	      0.00000000	      0.00000000
      7.37000000	     88.33222417	     56.52473742	     88.41825998	      0.39062584	      0.59901795	      0.81306460	     63.49786027	    -10.29409416	     -7.64204232	     23.68738138	      0.41342280	     -6.70691358	      0.00000000	      0.00000000	     61.17415469	    -15.48311610	    -14.81778795	     22.86194375	      0.39901619	     -5.04026517	      0.00000000	      0.00000000	    -51.76915464	     -8.08536216	     -0.37753257	     65.16090194	     -1.55965041	      8.20427633	     11.77730025	     35.49252806	      0.00000000	      0.00000000	     63.89316470	     -1.19698217	    -17.03180744	     22.30223073	     37.44026458	      0.00000000	      0.00000000
      7.37500000	     88.21857520	     56.75068879	     88.35803968	      0.39031041	      0.59956780	      0.81359495	     63.24176255	    -10.14469629	     -7.44762949	     23.61481035	      0.41215619	     -6.74710243	      0.00000000	      0.00000000	     60.83071472	    -15.60470368	    -14.98534733	     22.81071732	      0.39812212	     -5.00344946	      0.00000000	      0.00000000	    -51.72355888	     -8.27014041	     -0.28686086	     65.45288481	     -1.34211808	      8.29274615	     10.73069760	     35.19327299	      0.00000000	      0.00000000	     64.03817850	     -1.13004878	    -17.52171700	     21.75471506	     37.25242119	      0.00000000	      0.00000000
      7.38000000	     88.21681863	     57.00995020	     88.35183979	      0.38997896	      0.59980840	      0.81415431	     62.95063521	    -10.13160910	     -7.47738588	     23.61666101	      0.41218849	     -6.73141620	      0.00000000	      0.00000000	     60.49857353	    -15.61273493	    -15.01070235	     22.75527869	      0.39715454	     -5.00777967	      0.00000000	      0.00000000	    -51.72429482	     -8.30571089	     -0.23296122	     65.20302556	     -1.38625414	      8.49587435	     10.72805038	     35.53076534	      0.00000000	      0.00000000	     63.59328127	     -1.32775824	    -16.44839075	     21.96756368	     37.53081998	      0.00000000	      0.00000000
      7.38500000	     88.23578351	     57.24363566	     88.36128692	      0.38956064	      0.60000334	      0.81466306	     62.68044121	    -10.14099214	     -7.53050578	     23.64209162	      0.41263234	     -6.64817856	      0.00000000	      0.00000000	     60.19588722	    -15.59578694	    -15.03099445	     22.69217908	      0.39605324	     -4.95191880	      0.00000000	      0.00000000	    -51.70060515	     -8.28493288	     -0.28182044	     65.15779643	     -1.11934762	      7.77087040	     10.54295213	     33.81080136	      0.00000000	      0.00000000	     63.99933117	     -0.82342491	    -19.41494598	     21.47884685	     36.21672951	      0.00000000	      0.00000000
